<svg width="127" height="30" viewBox="0 0 127 30" fill="none" xmlns="http://www.w3.org/2000/svg">
<path d="M8.88889 30C6.23932 30 4.08832 29.2308 2.4359 27.6923C0.811966 26.1254 0 24.0171 0 21.3675V9.1453H5.38462V20.3846C5.38462 21.8661 5.76923 23.0199 6.53846 23.8462C7.33618 24.6439 8.49003 25.0427 10 25.0427C11.3675 25.0427 12.5214 24.5299 13.4615 23.5043C14.4302 22.4786 14.9145 21.1254 14.9145 19.4444V9.1453H20.2991V29.4444H14.9145V27.906C13.604 29.302 11.5954 30 8.88889 30Z" fill="#F6F9FE"/>
<path d="M28.1347 26.8803C26.2543 24.7721 25.3142 22.2507 25.3142 19.3162C25.3142 16.3818 26.2543 13.8604 28.1347 11.7521C30.0435 9.64387 32.5649 8.58974 35.6988 8.58974C38.2344 8.58974 40.2145 9.30199 41.639 10.7265V0.8547H47.0236V29.4444H41.639V27.906C40.2429 29.302 38.2629 30 35.6988 30C32.5649 30 30.0435 28.9601 28.1347 26.8803ZM30.6988 19.3162C30.6988 20.9117 31.2116 22.265 32.2372 23.3761C33.2629 24.4872 34.5592 25.0427 36.1261 25.0427C37.6931 25.0427 39.0321 24.5442 40.1432 23.547C41.2828 22.5499 41.8526 21.1396 41.8526 19.3162C41.8526 17.4929 41.2828 16.0826 40.1432 15.0855C39.0036 14.0598 37.6646 13.547 36.1261 13.547C34.5592 13.547 33.2629 14.1168 32.2372 15.2564C31.2116 16.396 30.6988 17.7493 30.6988 19.3162Z" fill="#F6F9FE"/>
<path d="M53.1774 9.1453H58.562V11.2393C59.0179 10.5556 59.7301 10.0142 60.6988 9.61538C61.6674 9.18803 62.7358 8.97436 63.9039 8.97436H66.3825V14.1026H63.8612C62.1803 14.1026 60.8697 14.6011 59.9296 15.5983C59.0179 16.5954 58.562 17.9202 58.562 19.5727V29.4444H53.1774V9.1453Z" fill="#F6F9FE"/>
<path d="M70.8267 5.8547V0H76.7241V5.8547H70.8267ZM71.0831 9.1453H76.4677V29.4444H71.0831V9.1453Z" fill="#F6F9FE"/>
<path d="M103.494 9.1453L94.3059 29.4444H89.2204L80.0324 9.1453H85.9726L91.87 22.2222L97.7674 9.1453H103.494Z" fill="#F6F9FE"/>
<path d="M120.697 23.2906H126.509C125.711 25.3419 124.4 26.9801 122.577 28.2051C120.754 29.4017 118.731 30 116.509 30C113.346 30 110.725 28.9886 108.646 26.9658C106.566 24.9145 105.526 22.3504 105.526 19.2735C105.526 16.2251 106.537 13.6895 108.56 11.6667C110.583 9.61538 113.161 8.58974 116.295 8.58974C119.4 8.58974 121.936 9.60114 123.902 11.6239C125.868 13.6467 126.851 16.1681 126.851 19.188C126.851 20.1282 126.822 20.755 126.765 21.0684H111.124C111.409 22.2934 112.036 23.2621 113.004 23.9744C114.002 24.6866 115.17 25.0427 116.509 25.0427C118.361 25.0427 119.757 24.4587 120.697 23.2906ZM111.252 17.0513H121.124C120.953 15.8832 120.426 14.9573 119.543 14.2735C118.66 13.5613 117.577 13.2051 116.295 13.2051C115.042 13.2051 113.93 13.5613 112.962 14.2735C111.993 14.9858 111.423 15.9117 111.252 17.0513Z" fill="#F6F9FE"/>
</svg>
